#!OML:ASF F:\VICON\USERDATA\INSTALL\rory3\rory3.ASF
:FULLY-SPECIFIED
:DEGREES
391
root -6.04114 16.5558 -4.78985 128.982 -68.7993 -117.558
lowerback 0.846721 1.74986 1.94879
upperback -5.2473 2.18403 -2.61662
thorax -5.74179 0.876487 -3.93735
lowerneck -17.0025 -2.21869 -10.2899
upperneck 13.7535 -3.44866 15.9246
head 7.50002 -0.83104 6.66125
rclavicle 3.25013e-014 6.36111e-014
rhumerus -12.8637 -15.7535 -27.5462
rradius 46.6275
rwrist 9.70553
rhand -31.8563 -65.2544
rfingers 7.12502
rthumb -5.10996 -1704.83
lclavicle 3.25013e-014 6.36111e-014
lhumerus -46.7197 2.80813 41.1058
lradius 37.1759
lwrist 25.0139
lhand -44.9207 325.903
lfingers 7.12502
lthumb -17.7073 -4.88295
rfemur -29.3771 0.115015 32.724
rtibia 41.3148
rfoot -16.6117 -15.8546
rtoes -4.21863
lfemur -43.918 16.2796 9.30586
ltibia 43.851
lfoot -57.2462 39.8872
ltoes 40.0821
392
root -6.03988 16.586 -4.87108 134.151 -68.309 -123.282
lowerback 1.00734 1.92576 2.00863
upperback -5.18132 2.41277 -2.82902
thorax -5.73528 0.982192 -4.21018
lowerneck -17.5931 -2.45266 -11.1739
upperneck 14.963 -3.89082 17.0587
head 8.10879 -0.963887 7.2273
rclavicle 5.56597e-015 2.54444e-014
rhumerus -12.6862 -16.1405 -29.5494
rradius 46.9702
rwrist 9.65423
rhand -31.0007 -63.4087
rfingers 7.12502
rthumb -4.28386 -1706.65
lclavicle 5.56597e-015 2.54444e-014
lhumerus -46.7757 2.44922 40.7796
lradius 37.4579
lwrist 25.7239
lhand -43.5868 325.152
lfingers 7.12502
lthumb -16.4234 -5.52325
rfemur -29.0666 0.823997 32.0305
rtibia 41.4324
rfoot -16.9334 -14.5903
rtoes -3.18573
lfemur -41.8502 14.0617 10.1347
ltibia 43.6768
lfoot -56.4217 39.2473
ltoes 40.0001
393
root -6.03064 16.597 -4.96222 138.819 -67.4584 -127.981
lowerback 0.674804 1.73999 1.81674
upperback -5.15251 2.16494 -2.54654
thorax -5.55093 0.878607 -3.77873
lowerneck -17.6485 -2.0114 -10.5075
upperneck 15.1862 -3.28535 16.1597
head 8.06356 -0.707252 6.86476
rclavicle -4.96962e-016 3.18055e-015
rhumerus -11.2821 -15.7388 -32.0684
rradius 46.7604
rwrist 9.89741
rhand -32.0281 -61.6948
rfingers 7.12502
rthumb -5.27584 -1708.39
lclavicle -4.96962e-016 3.18055e-015
lhumerus -47.7643 2.79044 40.669
lradius 37.9869
lwrist 27.6015
lhand -44.2451 324.143
lfingers 7.12502
lthumb -17.0571 -6.58543
rfemur -29.2466 1.50468 31.8065
rtibia 41.5237
rfoot -17.1304 -13.4951
rtoes -2.73666
lfemur -40.8165 14.2672 10.367
ltibia 43.7867
lfoot -51.421 40.0079
ltoes 37.7063
394
root -6.02826 16.6012 -5.04812 141.996 -66.3895 -131.334
lowerback 0.548708 1.76709 2.11589
upperback -5.15059 2.20998 -2.53157
thorax -5.4637 0.888604 -3.92864
lowerneck -17.8889 -1.88545 -10.3859
upperneck 15.8259 -3.31942 16.6139
head 8.33131 -0.667019 7.03356
rclavicle -1.758e-014 -1.59028e-014
rhumerus -11.015 -15.4528 -34.2707
rradius 46.8124
rwrist 9.9429
rhand -32.3886 -60.1661
rfingers 7.12502
rthumb -5.62394 -1709.93
lclavicle -1.758e-014 -1.59028e-014
lhumerus -47.9726 1.9002 40.8984
lradius 38.3733
lwrist 29.6941
lhand -44.5743 322.961
lfingers 7.12502
lthumb -17.374 -7.79555
rfemur -29.13 2.46567 31.9072
rtibia 41.5626
rfoot -17.0935 -12.9428
rtoes -2.66744
lfemur -39.8447 14.3289 10.8279
ltibia 44.1556
lfoot -46.6017 40.1692
ltoes 35.3088
395
root -6.02404 16.6017 -5.13621 144.429 -65.2692 -133.822
lowerback 0.412982 1.74824 2.50389
upperback -5.14278 2.20942 -2.29274
thorax -5.37334 0.879434 -3.89189
lowerneck -18.1806 -1.77002 -10.1859
upperneck 16.3797 -3.22178 16.4063
head 8.54512 -0.610817 6.96265
rclavicle -1.39149e-014 -2.22639e-014
rhumerus -10.5664 -15.148 -36.1399
rradius 46.7556
rwrist 10.8563
rhand -32.4753 -58.7049
rfingers 7.12502
rthumb -5.70769 -1888.61
lclavicle -1.39149e-014 -2.22639e-014
lhumerus -48.2418 1.59398 41.2214
lradius 38.5944
lwrist 30.0968
lhand -44.6419 322.928
lfingers 7.12502
lthumb -17.439 -7.83463
rfemur -29.0978 3.56411 32.1862
rtibia 41.6445
rfoot -17.1822 -12.426
rtoes -1.80995
lfemur -39.1868 14.8555 11.2347
ltibia 44.713
lfoot -42.4384 38.7607
ltoes 33.7649
396
root -6.02254 16.6134 -5.2125 147.073 -64.7606 -136.526
lowerback 0.234632 1.62092 2.48768
upperback -5.09864 2.03894 -2.18028
thorax -5.24319 0.800967 -3.75001
lowerneck -18.2744 -1.77847 -10.2482
upperneck 16.6 -3.21378 16.2922
head 8.63226 -0.616236 6.94425
rclavicle -1.28713e-014 7.95139e-014
rhumerus -10.259 -14.8559 -37.8854
rradius 46.8398
rwrist 11.9773
rhand -32.4164 -57.7451
rfingers 7.12502
rthumb -5.65082 -1887.65
lclavicle -1.28713e-014 7.95139e-014
lhumerus -48.3866 2.0842 41.158
lradius 38.6113
lwrist 28.7407
lhand -44.7201 324.301
lfingers 7.12502
lthumb -17.5143 -6.46762
rfemur -29.1768 4.04995 31.8355
rtibia 41.7616
rfoot -17.2271 -11.8657
rtoes -1.83817
lfemur -38.9318 15.0461 10.7568
ltibia 45.4468
lfoot -38.6847 37.0351
ltoes 32.2795
397
root -6.02407 16.623 -5.2969 149.69 -63.9771 -139.035
lowerback -0.178585 1.65553 2.4825
upperback -5.1211 2.07647 -2.08373
thorax -5.0309 0.824334 -3.63358
lowerneck -17.7899 -1.89295 -10.1643
upperneck 16.347 -3.40527 16.2553
head 8.48639 -0.730712 6.87233
rclavicle -1.14301e-015 -2.22639e-014
rhumerus -10.3229 -14.8161 -39.5204
rradius 47.2517
rwrist 12.0589
rhand -32.2977 -59.3102
rfingers 7.12502
rthumb -5.53616 -1889.22
lclavicle -1.14301e-015 -2.22639e-014
lhumerus -48.2072 2.58881 41.0337
lradius 38.41
lwrist 27.3596
lhand -45.0028 325.524
lfingers 7.12502
lthumb -17.7864 -5.26972
rfemur -29.4117 4.55656 31.7253
rtibia 41.9116
rfoot -16.9843 -11.6608
rtoes -3.88055
lfemur -38.648 14.2988 10.6703
ltibia 46.2769
lfoot -35.9821 36.0602
ltoes 30.7749
398
root -6.0303 16.6149 -5.38186 150.985 -62.9427 -140.253
lowerback -0.46181 1.67427 2.95433
upperback -5.11296 2.11834 -1.82633
thorax -4.8517 0.835018 -3.62199
lowerneck -18.9464 -2.56645 -10.7975
upperneck 18.6425 -4.54269 16.7886
head 9.68454 -1.20337 7.16064
rclavicle -3.24019e-014 9.54166e-015
rhumerus -10.486 -14.5596 -41.1597
rradius 47.428
rwrist 12.7107
rhand -32.8129 -60.1075
rfingers 7.12502
rthumb -6.03355 -1710
lclavicle -3.24019e-014 9.54166e-015
lhumerus -48.1174 2.62167 41.3119
lradius 38.4742
lwrist 27.1318
lhand -45.5231 325.529
lfingers 7.12502
lthumb -18.2869 -5.3102
rfemur -29.5159 5.25939 32.1696
rtibia 42.1094
rfoot -17.0731 -11.3388
rtoes -3.82299
lfemur -38.587 14.9196 10.808
ltibia 47.2118
lfoot -31.6462 34.6731
ltoes 27.7762
399
root -6.03668 16.6146 -5.46903 152.463 -62.1951 -141.696
lowerback -0.788997 1.55751 3.0347
upperback -5.07778 1.96143 -1.60394
thorax -4.64619 0.762678 -3.41927
lowerneck -17.8054 -2.09128 -11.061
upperneck 17.0156 -3.80459 17.3778
head 8.81565 -0.881481 7.4289
rclavicle 6.65929e-014 0
rhumerus -10.5238 -14.0322 -42.8981
rradius 47.501
rwrist 13.4198
rhand -32.4356 -59.9108
rfingers 7.12502
rthumb -5.66932 -1889.81
lclavicle 6.65929e-014 0
lhumerus -48.2883 2.12321 42.1811
lradius 39.0688
lwrist 27.9877
lhand -45.8658 325.068
lfingers 7.12502
lthumb -18.6166 -5.80312
rfemur -29.6237 6.36383 32.2458
rtibia 42.324
rfoot -17.2933 -11.3154
rtoes -2.49902
lfemur -38.502 14.5741 10.7725
ltibia 48.1098
lfoot -28.2679 33.5216
ltoes 25.0633
400
root -6.04051 16.6175 -5.56092 153.989 -61.5851 -143.293
lowerback -0.98693 1.48996 2.99948
upperback -5.0062 1.86836 -1.49685
thorax -4.47011 0.724894 -3.27808
lowerneck -17.9256 -2.1828 -11.1171
upperneck 17.3972 -3.96934 17.3763
head 8.9942 -0.957953 7.43807
rclavicle -3.0911e-014 -9.54166e-015
rhumerus -10.877 -13.6404 -44.5341
rradius 47.6162
rwrist 13.6869
rhand -32.0324 -60.165
rfingers 7.12502
rthumb -5.27998 -1709.92
lclavicle -3.0911e-014 -9.54166e-015
lhumerus -48.0716 1.37129 43.0103
lradius 39.3778
lwrist 28.8593
lhand -45.795 324.991
lfingers 7.12502
lthumb -18.5485 -5.87357
rfemur -29.6728 7.55143 32.16
rtibia 42.5855
rfoot -17.3551 -11.7814
rtoes -2.18377
lfemur -38.3999 14.3366 10.4983
ltibia 48.9331
lfoot -25.5436 31.762
ltoes 22.7029
401
root -6.04312 16.6213 -5.64667 155.338 -60.9667 -144.665
lowerback -1.06434 1.44101 3.25482
upperback -4.99939 1.80429 -1.46325
thorax -4.41872 0.683746 -3.38275
lowerneck -17.9903 -2.26317 -11.4309
upperneck 17.7008 -4.12856 17.7379
head 9.15097 -1.02114 7.62752
rclavicle -2.84262e-014 6.04305e-014
rhumerus -11.4166 -13.1531 -46.1921
rradius 47.7515
rwrist 13.1895
rhand -32.3552 -61.1093
rfingers 7.12502
rthumb -5.59172 -1708.98
lclavicle -2.84262e-014 6.04305e-014
lhumerus -47.8546 -0.115765 43.0681
lradius 39.3311
lwrist 29.9363
lhand -45.2498 325.204
lfingers 7.12502
lthumb -18.024 -5.61135
rfemur -29.7795 8.18916 32.191
rtibia 42.871
rfoot -17.5216 -11.8286
rtoes -1.36733
lfemur -38.2958 13.7378 10.3082
ltibia 49.5913
lfoot -24.0429 29.7618
ltoes 21.6611
402
root -6.04644 16.6345 -5.71165 157.582 -60.5019 -146.762
lowerback -1.3968 1.40035 3.10817
upperback -5.12267 1.72462 -1.51416
thorax -4.3677 0.642909 -3.34421
lowerneck -17.6226 -2.28422 -11.3535
upperneck 17.773 -4.23065 17.7067
head 9.1206 -1.08765 7.58525
rclavicle -3.17062e-014 -3.49861e-014
rhumerus -11.9722 -12.4655 -47.6796
rradius 47.8892
rwrist 12.8071
rhand -32.4874 -61.3045
rfingers 7.12502
rthumb -5.71935 -1708.79
lclavicle -3.17062e-014 -3.49861e-014
lhumerus -47.4021 0.95444 42.8368
lradius 38.598
lwrist 28.477
lhand -45.0157 325.165
lfingers 7.12502
lthumb -17.7987 -5.62924
rfemur -30.1937 8.54718 31.7049
rtibia 43.1182
rfoot -17.6446 -11.6879
rtoes -0.660985
lfemur -38.4171 12.6935 9.56411
ltibia 50.1797
lfoot -22.9352 28.4241
ltoes 20.5286
403
root -6.0495 16.6598 -5.75501 160.368 -60.1119 -149.471
lowerback -1.82025 1.46883 2.57108
upperback -5.16393 1.78765 -1.58587
thorax -4.17698 0.693598 -3.10645
lowerneck -16.9593 -2.43709 -10.6793
upperneck 17.4882 -4.45169 16.8392
head 8.89865 -1.25633 7.08466
rclavicle 4.41302e-014 1.90833e-014
rhumerus -12.5519 -12.3083 -48.7413
rradius 48.0861
rwrist 12.8694
rhand -32.5548 -61.3868
rfingers 7.12502
rthumb -5.78439 -1708.71
lclavicle 4.41302e-014 1.90833e-014
lhumerus -46.9745 0.910413 43.6177
lradius 38.5977
lwrist 28.1752
lhand -45.2215 326.023
lfingers 7.12502
lthumb -17.9968 -4.7897
rfemur -30.6483 9.13268 30.7126
rtibia 43.3486
rfoot -17.6364 -11.7753
rtoes -0.488677
lfemur -38.473 11.3041 8.38963
ltibia 50.5844
lfoot -22.4219 27.2161
ltoes 19.6506
404
root -6.04944 16.6529 -5.85474 159.967 -58.9184 -149.405
lowerback -1.27508 1.48768 3.39298
upperback -5.19273 1.85048 -1.38946
thorax -4.49661 0.691287 -3.38196
lowerneck -17.0001 -2.58058 -11.2604
upperneck 18.0903 -4.76977 17.5396
head 9.19447 -1.38629 7.44049
rclavicle 5.76476e-015 -3.81667e-014
rhumerus -13.4915 -12.1472 -50.4145
rradius 48.3389
rwrist 12.5866
rhand -33.0349 -61.1249
rfingers 7.12502
rthumb -6.2479 -1708.99
lclavicle 5.76476e-015 -3.81667e-014
lhumerus -46.7875 0.307718 43.8512
lradius 38.6959
lwrist 28.2362
lhand -45.0315 326.664
lfingers 7.12502
lthumb -17.814 -4.13229
rfemur -30.0977 11.1675 31.5596
rtibia 43.4378
rfoot -17.63 -12.7661
rtoes 1.23689
lfemur -37.8227 10.1098 9.34665
ltibia 51.2003
lfoot -22.4979 25.236
ltoes 19.798
405
root -6.068 16.6972 -5.90074 162.893 -58.9118 -152.446
lowerback -1.13524 1.21318 3.20822
upperback -5.5078 1.44922 -1.76425
thorax -4.9363 0.465411 -3.66796
lowerneck -16.865 -2.46775 -11.8776
upperneck 18.6685 -4.65719 17.9701
head 9.37005 -1.34759 7.76053
rclavicle 5.96354e-016 -3.81667e-014
rhumerus -14.1509 -11.3422 -52.0686
rradius 48.4794
rwrist 12.1758
rhand -33.4028 -59.5165
rfingers 7.12502
rthumb -6.6031 -1529.39
lclavicle 5.96354e-016 -3.81667e-014
lhumerus -47.0418 0.499568 43.86
lradius 38.7145
lwrist 28.0495
lhand -44.7503 326.981
lfingers 7.12502
lthumb -17.5434 -3.79066
rfemur -30.3142 11.3561 30.1443
rtibia 43.631
rfoot -17.6748 -12.8183
rtoes 1.64152
lfemur -37.8398 8.06492 7.60746
ltibia 51.4477
lfoot -22.2303 24.5904
ltoes 19.2821
